<svg xmlns="http://www.w3.org/2000/svg" width="1015" height="658" viewBox="0 0 1015 658" fill="none"><g clip-path="url(#clip0_4957_176)"><path d="M14.06 280.04L0 172.89H21.73L23.9 280.04H14.06Z" fill="#E64D3C"></path><path d="M35.82 402.49L12 172.89H69.42V402.49H35.82Z" fill="#E64D3C"></path><path d="M43.7205 402.49L21.7305 173.51H103.31V402.49H43.7205Z" fill="#C1322D"></path><path d="M66.9707 447.76V172.98H440.861V437.85L507.731 641.95H68.3207L66.9707 447.76Z" fill="black"></path><path d="M67 187.62C67 84 151 0 254.59 0C358.18 0 442.21 84 442.21 187.62H67Z" fill="black"></path><path d="M143.1 367.12C143.089 376.592 144.966 385.971 148.62 394.71L440.86 296.4H213.08C174.42 296.4 143.1 328.07 143.1 367.12Z" fill="#C6956D"></path><path d="M148.619 394.71C152.14 403.08 157.231 410.697 163.619 417.15C170.082 423.712 177.786 428.923 186.283 432.479C194.779 436.034 203.899 437.864 213.109 437.86H440.859V296.4L148.619 394.71Z" fill="#DAAB7B"></path><path d="M379.03 381.89C387.739 381.89 394.8 374.83 394.8 366.12C394.8 357.411 387.739 350.35 379.03 350.35C370.32 350.35 363.26 357.411 363.26 366.12C363.26 374.83 370.32 381.89 379.03 381.89Z" fill="black"></path><path d="M330.491 381.89C339.2 381.89 346.261 374.83 346.261 366.12C346.261 357.411 339.2 350.35 330.491 350.35C321.781 350.35 314.721 357.411 314.721 366.12C314.721 374.83 321.781 381.89 330.491 381.89Z" fill="black"></path><path d="M56.1602 172.97V275.69H114.86L450.76 172.97H56.1602Z" fill="#D33E30"></path><path d="M114.859 275.69H450.759V172.97L114.859 275.69Z" fill="#F04F3F"></path><path d="M1014.72 625.17H29.9102V658H1014.72V625.17Z" fill="#414042"></path><path d="M342.65 622.46H297.16V569.02C297.16 564.891 298.8 560.93 301.72 558.01C304.64 555.09 308.6 553.45 312.73 553.45H368.73C371.544 553.45 374.242 554.568 376.232 556.558C378.222 558.547 379.34 561.246 379.34 564.06V585.77C379.34 595.501 375.474 604.833 368.594 611.714C361.713 618.594 352.381 622.46 342.65 622.46Z" fill="#DAAB7B"></path><path d="M427.881 553.45H496.771V622.45H454.001C449.182 622.45 444.411 621.501 439.96 619.657C435.508 617.813 431.464 615.111 428.057 611.704C424.65 608.297 421.947 604.252 420.103 599.801C418.26 595.349 417.311 590.578 417.311 585.76V564.06C417.311 561.253 418.423 558.56 420.404 556.572C422.385 554.583 425.074 553.461 427.881 553.45Z" fill="#DAAB7B"></path><path d="M825.49 592.89H272.1V625.72H825.49V592.89Z" fill="#BCBEC0"></path><path d="M468.609 625.86L524.869 326.62H975.839L919.359 625.86H468.609Z" fill="#E6E7E8"></path></g><defs><clipPath id="clip0_4957_176"><rect width="1014.72" height="658" fill="white"></rect></clipPath></defs></svg>